<?xml version="1.0" encoding="UTF-8" standalone="no"?>
<!-- Created with Inkscape (http://www.inkscape.org/) -->

<svg
   width="512mm"
   height="512mm"
   viewBox="0 0 512 512"
   version="1.1"
   id="svg2231"
   xmlns="http://www.w3.org/2000/svg"
   xmlns:svg="http://www.w3.org/2000/svg">
  <defs
     id="defs2228" />
  <g
     id="layer1">
    <path
       id="path31893"
       style="fill:#ffffff;fill-opacity:1;stroke-width:0.264582"
       d="M 182.83647,0 C 162.60855,0 146.28604,16.323033 146.28604,36.552598 V 146.298 H 36.551233 C 16.324121,146.298 0,162.62022 0,182.84979 c 0,20.23038 16.324121,36.5952 36.551233,36.5952 H 146.28604 v 73.10764 H 36.551233 C 16.324121,292.55263 0,308.91986 0,329.14783 0,349.37736 16.324121,365.702 36.551233,365.702 H 146.28604 v 109.74302 c 0,20.22958 16.32251,36.55498 36.55043,36.55498 20.22711,0 36.59221,-16.3254 36.59221,-36.55498 V 365.702 h 73.14263 v 109.74302 c 0,20.22958 16.32251,36.55498 36.55039,36.55498 20.22873,0 36.59301,-16.3254 36.59301,-36.55498 V 365.702 h 109.69306 c 20.2279,0 36.59222,-16.32464 36.59222,-36.55417 0,-20.22797 -16.36432,-36.5952 -36.59222,-36.5952 H 365.71471 v -73.10764 h 109.69306 c 20.2279,0 36.59222,-16.36482 36.59222,-36.5952 0,-20.22957 -16.36432,-36.55179 -36.59222,-36.55179 H 365.71471 V 36.552598 C 365.71471,16.323033 349.35043,0 329.1217,0 308.89382,0 292.57131,16.323033 292.57131,36.552598 V 146.298 H 219.42868 V 36.552598 C 219.42868,16.323033 203.06358,0 182.83647,0 Z m 36.59221,219.44499 h 73.14263 v 73.10764 h -73.14263 z" />
  </g>
</svg>
